<?xml version="1.0" encoding="windows-1252" standalone="no"?>
<svg xmlns="http://www.w3.org/2000/svg" xmlns:xlink="http://www.w3.org/1999/xlink" contentStyleType="text/css" height="311px" preserveAspectRatio="none" style="width:363px;height:311px;background:#FFFFFF;" version="1.1" viewBox="0 0 363 311" width="363px" zoomAndPan="magnify"><defs/><g><!--class Uart--><g id="elem_Uart"><rect codeLine="2" fill="#CCCCCC" height="67.6094" id="Uart" rx="2.5" ry="2.5" style="stroke:#AAAAAA;stroke-width:0.5;" width="206" x="74.5" y="237"/><ellipse cx="162.5" cy="250" fill="#ADD1B2" rx="8" ry="8" style="stroke:#181818;stroke-width:1.0;"/><path d="M164.625,253.5625 Q164.0469,253.8594 163.4219,254 Q162.8125,254.1563 162.1406,254.1563 Q160.1406,254.1563 158.9688,253.0469 Q157.7969,251.9219 157.7969,250 Q157.7969,248.0781 158.9688,246.9531 Q160.1406,245.8281 162.1406,245.8281 Q162.8125,245.8281 163.4219,245.9844 Q164.0469,246.1406 164.625,246.4375 L164.625,248.0938 Q164.0469,247.7031 163.4844,247.5156 Q162.9219,247.3281 162.3125,247.3281 Q161.2031,247.3281 160.5625,248.0469 Q159.9375,248.75 159.9375,250 Q159.9375,251.2344 160.5625,251.9531 Q161.2031,252.6563 162.3125,252.6563 Q162.9219,252.6563 163.4844,252.4844 Q164.0469,252.2969 164.625,251.9063 L164.625,253.5625 Z " fill="#000000"/><text fill="#333333" font-family="Verdana" font-size="11" lengthAdjust="spacing" textLength="23" x="178.5" y="253.8081">Uart</text><line style="stroke:#AAAAAA;stroke-width:0.5;" x1="75.5" x2="279.5" y1="263" y2="263"/><line style="stroke:#AAAAAA;stroke-width:0.5;" x1="75.5" x2="279.5" y1="271" y2="271"/><ellipse cx="85.5" cy="282.4023" fill="#84BE84" rx="3" ry="3" style="stroke:#038048;stroke-width:1.0;"/><text fill="#333333" font-family="Verdana" font-size="11" lengthAdjust="spacing" textLength="183" x="91.5" y="285.2104">bool send(const uint8_t*, size_t)</text><ellipse cx="85.5" cy="295.207" fill="#84BE84" rx="3" ry="3" style="stroke:#038048;stroke-width:1.0;"/><text fill="#333333" font-family="Verdana" font-size="11" lengthAdjust="spacing" textLength="175" x="91.5" y="298.0151">size_t receive(uint8_t*, size_t)</text></g><!--class ILogSender--><g id="elem_ILogSender"><rect codeLine="7" fill="#CCCCCC" height="54.8047" id="ILogSender" rx="2.5" ry="2.5" style="stroke:#AAAAAA;stroke-width:0.5;" width="149" x="7" y="122"/><ellipse cx="45.5" cy="135" fill="#ADD1B2" rx="8" ry="8" style="stroke:#181818;stroke-width:1.0;"/><path d="M47.625,138.5625 Q47.0469,138.8594 46.4219,139 Q45.8125,139.1563 45.1406,139.1563 Q43.1406,139.1563 41.9688,138.0469 Q40.7969,136.9219 40.7969,135 Q40.7969,133.0781 41.9688,131.9531 Q43.1406,130.8281 45.1406,130.8281 Q45.8125,130.8281 46.4219,130.9844 Q47.0469,131.1406 47.625,131.4375 L47.625,133.0938 Q47.0469,132.7031 46.4844,132.5156 Q45.9219,132.3281 45.3125,132.3281 Q44.2031,132.3281 43.5625,133.0469 Q42.9375,133.75 42.9375,135 Q42.9375,136.2344 43.5625,136.9531 Q44.2031,137.6563 45.3125,137.6563 Q45.9219,137.6563 46.4844,137.4844 Q47.0469,137.2969 47.625,136.9063 L47.625,138.5625 Z " fill="#000000"/><text fill="#333333" font-family="Verdana" font-size="11" lengthAdjust="spacing" textLength="65" x="61.5" y="138.8081">ILogSender</text><line style="stroke:#AAAAAA;stroke-width:0.5;" x1="8" x2="155" y1="148" y2="148"/><line style="stroke:#AAAAAA;stroke-width:0.5;" x1="8" x2="155" y1="156" y2="156"/><ellipse cx="18" cy="167.4023" fill="#84BE84" rx="3" ry="3" style="stroke:#038048;stroke-width:1.0;"/><text fill="#333333" font-family="Verdana" font-size="11" font-style="italic" lengthAdjust="spacing" textLength="126" x="24" y="170.2104">bool send(const Log&amp;)</text></g><!--class IHeightSender--><g id="elem_IHeightSender"><rect codeLine="12" fill="#CCCCCC" height="54.8047" id="IHeightSender" rx="2.5" ry="2.5" style="stroke:#AAAAAA;stroke-width:0.5;" width="165" x="191" y="122"/><ellipse cx="229" cy="135" fill="#ADD1B2" rx="8" ry="8" style="stroke:#181818;stroke-width:1.0;"/><path d="M231.125,138.5625 Q230.5469,138.8594 229.9219,139 Q229.3125,139.1563 228.6406,139.1563 Q226.6406,139.1563 225.4688,138.0469 Q224.2969,136.9219 224.2969,135 Q224.2969,133.0781 225.4688,131.9531 Q226.6406,130.8281 228.6406,130.8281 Q229.3125,130.8281 229.9219,130.9844 Q230.5469,131.1406 231.125,131.4375 L231.125,133.0938 Q230.5469,132.7031 229.9844,132.5156 Q229.4219,132.3281 228.8125,132.3281 Q227.7031,132.3281 227.0625,133.0469 Q226.4375,133.75 226.4375,135 Q226.4375,136.2344 227.0625,136.9531 Q227.7031,137.6563 228.8125,137.6563 Q229.4219,137.6563 229.9844,137.4844 Q230.5469,137.2969 231.125,136.9063 L231.125,138.5625 Z " fill="#000000"/><text fill="#333333" font-family="Verdana" font-size="11" lengthAdjust="spacing" textLength="82" x="245" y="138.8081">IHeightSender</text><line style="stroke:#AAAAAA;stroke-width:0.5;" x1="192" x2="355" y1="148" y2="148"/><line style="stroke:#AAAAAA;stroke-width:0.5;" x1="192" x2="355" y1="156" y2="156"/><ellipse cx="202" cy="167.4023" fill="#84BE84" rx="3" ry="3" style="stroke:#038048;stroke-width:1.0;"/><text fill="#333333" font-family="Verdana" font-size="11" font-style="italic" lengthAdjust="spacing" textLength="142" x="208" y="170.2104">bool send(const Height&amp;)</text></g><!--class Sensor--><g id="elem_Sensor"><rect codeLine="19" fill="#CCCCCC" height="54.8047" id="Sensor" rx="2.5" ry="2.5" style="stroke:#AAAAAA;stroke-width:0.5;" width="233" x="61" y="7"/><ellipse cx="154" cy="20" fill="#ADD1B2" rx="8" ry="8" style="stroke:#181818;stroke-width:1.0;"/><path d="M156.125,23.5625 Q155.5469,23.8594 154.9219,24 Q154.3125,24.1563 153.6406,24.1563 Q151.6406,24.1563 150.4688,23.0469 Q149.2969,21.9219 149.2969,20 Q149.2969,18.0781 150.4688,16.9531 Q151.6406,15.8281 153.6406,15.8281 Q154.3125,15.8281 154.9219,15.9844 Q155.5469,16.1406 156.125,16.4375 L156.125,18.0938 Q155.5469,17.7031 154.9844,17.5156 Q154.4219,17.3281 153.8125,17.3281 Q152.7031,17.3281 152.0625,18.0469 Q151.4375,18.75 151.4375,20 Q151.4375,21.2344 152.0625,21.9531 Q152.7031,22.6563 153.8125,22.6563 Q154.4219,22.6563 154.9844,22.4844 Q155.5469,22.2969 156.125,21.9063 L156.125,23.5625 Z " fill="#000000"/><text fill="#333333" font-family="Verdana" font-size="11" lengthAdjust="spacing" textLength="40" x="170" y="23.8081">Sensor</text><line style="stroke:#AAAAAA;stroke-width:0.5;" x1="62" x2="293" y1="33" y2="33"/><line style="stroke:#AAAAAA;stroke-width:0.5;" x1="62" x2="293" y1="41" y2="41"/><ellipse cx="72" cy="52.4023" fill="#84BE84" rx="3" ry="3" style="stroke:#038048;stroke-width:1.0;"/><text fill="#333333" font-family="Verdana" font-size="11" lengthAdjust="spacing" textLength="210" x="78" y="55.2104">Sensor(ILogSender*,IHeightSender*)</text></g><!--reverse link ILogSender to Uart--><g id="link_ILogSender_Uart"><path codeLine="16" d="M115.633,192.989 C127.171,207.3508 139.878,223.1684 150.759,236.7126 " fill="none" id="ILogSender-backto-Uart" style="stroke:#000000;stroke-width:1.0;"/><polygon fill="none" points="109.874,196.997,102.8055,177.021,120.788,188.229,109.874,196.997" style="stroke:#000000;stroke-width:1.0;"/></g><!--reverse link IHeightSender to Uart--><g id="link_IHeightSender_Uart"><path codeLine="17" d="M239.367,192.989 C227.829,207.3508 215.122,223.1684 204.241,236.7126 " fill="none" id="IHeightSender-backto-Uart" style="stroke:#000000;stroke-width:1.0;"/><polygon fill="none" points="234.212,188.229,252.194,177.021,245.126,196.997,234.212,188.229" style="stroke:#000000;stroke-width:1.0;"/></g><!--link Sensor to ILogSender--><g id="link_Sensor_ILogSender"><path codeLine="23" d="M154.749,62.279 C139.446,80.293 119.356,103.94 104.0874,121.913 " fill="none" id="Sensor-ILogSender" style="stroke:#000000;stroke-width:1.0;"/></g><!--link Sensor to IHeightSender--><g id="link_Sensor_IHeightSender"><path codeLine="24" d="M200.251,62.279 C215.554,80.293 235.644,103.94 250.913,121.913 " fill="none" id="Sensor-IHeightSender" style="stroke:#000000;stroke-width:1.0;"/></g><!--SRC=[ZO-n3e8m54LtlkAv64JO7Vm0JToCCodb1PfKclGz74J-tTgM065nQs_kFQVTSOjF18jrRP6eqAffkT8z9b8B8dW8op0a04UeZD50sDMfD1qnzAhZKybP3gJUMFB1jyBP0IMg5wRRqfX4zFLcchl3eOs2GLJ4LaWUDovNtVlfjBtWxw7_paCx41RQywSe_0-JDM_EeyxbP2PFkAGp9yjNyynhuiI1vk8oN2w-]--></g></svg>